#N canvas 297 186 913 574 10;
#X obj 153 163 vsl 20 18 0 1 0 0 empty empty 9 8 8 0 10 -262144 -1
-1 0 1;
#X obj 111 163 vsl 20 18 0 1 0 0 empty empty 7 8 8 0 10 -262144 -1
-1 0 1;
#X obj 132 163 vsl 20 18 0 1 0 0 empty empty 8 8 8 0 10 -262144 -1
-1 0 1;
#X obj 153 185 vsl 20 18 0 1 0 0 empty empty 6 8 8 0 10 -262144 -1
-1 0 1;
#X obj 111 185 vsl 20 18 0 1 0 0 empty empty 4 8 8 0 10 -262144 -1
-1 0 1;
#X obj 132 185 vsl 20 18 0 1 0 0 empty empty 5 8 8 0 10 -262144 -1
-1 0 1;
#X obj 153 207 vsl 20 18 0 1 0 0 empty empty 3 8 8 0 10 -262144 -1
-1 0 1;
#X obj 111 207 vsl 20 18 0 1 0 0 empty empty 1 8 8 0 10 -262144 -1
-1 0 1;
#X obj 132 207 vsl 20 18 0 1 0 0 empty empty 2 8 8 0 10 -262144 -1
-1 0 1;
#N canvas 272 297 450 300 n1 0;
#X obj 20 -178 key;
#X obj 20 -155 sel 49;
#X msg 20 -132 1;
#X obj 70 -178 keyup;
#X obj 70 -155 sel 49;
#X msg 70 -132 0;
#X obj 71 -10 outlet;
#X obj 5 -11 outlet;
#X connect 0 0 1 0;
#X connect 1 0 2 0;
#X connect 2 0 7 0;
#X connect 3 0 4 0;
#X connect 4 0 5 0;
#X connect 5 0 6 0;
#X restore 83 84 pd n1;
#N canvas 269 297 450 300 n2 0;
#X obj 20 -178 key;
#X msg 20 -132 1;
#X obj 70 -178 keyup;
#X msg 70 -132 0;
#X obj 71 -10 outlet;
#X obj 5 -11 outlet;
#X obj 70 -155 sel 50;
#X obj 20 -155 sel 50;
#X connect 0 0 7 0;
#X connect 1 0 5 0;
#X connect 2 0 6 0;
#X connect 3 0 4 0;
#X connect 6 0 3 0;
#X connect 7 0 1 0;
#X restore 129 82 pd n2;
#N canvas 269 297 450 300 n3 0;
#X obj 20 -178 key;
#X msg 20 -132 1;
#X obj 70 -178 keyup;
#X msg 70 -132 0;
#X obj 71 -10 outlet;
#X obj 5 -11 outlet;
#X obj 21 -155 sel 51;
#X obj 70 -155 sel 51;
#X connect 0 0 6 0;
#X connect 1 0 5 0;
#X connect 2 0 7 0;
#X connect 3 0 4 0;
#X connect 6 0 1 0;
#X connect 7 0 3 0;
#X restore 173 84 pd n3;
#N canvas 266 297 450 300 n4 0;
#X obj 20 -178 key;
#X msg 20 -132 1;
#X obj 70 -178 keyup;
#X msg 70 -132 0;
#X obj 71 -10 outlet;
#X obj 5 -11 outlet;
#X obj 21 -154 sel 52;
#X obj 70 -155 sel 52;
#X connect 0 0 6 0;
#X connect 1 0 5 0;
#X connect 2 0 7 0;
#X connect 3 0 4 0;
#X connect 6 0 1 0;
#X connect 7 0 3 0;
#X restore 91 52 pd n4;
#N canvas 269 297 450 300 n5 0;
#X obj 20 -178 key;
#X msg 20 -132 1;
#X obj 70 -178 keyup;
#X msg 70 -132 0;
#X obj 71 -10 outlet;
#X obj 5 -11 outlet;
#X obj 20 -155 sel 53;
#X obj 70 -155 sel 53;
#X connect 0 0 6 0;
#X connect 1 0 5 0;
#X connect 2 0 7 0;
#X connect 3 0 4 0;
#X connect 6 0 1 0;
#X connect 7 0 3 0;
#X restore 133 54 pd n5;
#N canvas 266 297 450 300 n6 0;
#X obj 20 -178 key;
#X msg 20 -132 1;
#X obj 70 -178 keyup;
#X msg 70 -132 0;
#X obj 71 -10 outlet;
#X obj 5 -11 outlet;
#X obj 20 -155 sel 54;
#X obj 70 -155 sel 54;
#X connect 0 0 6 0;
#X connect 1 0 5 0;
#X connect 2 0 7 0;
#X connect 3 0 4 0;
#X connect 6 0 1 0;
#X connect 7 0 3 0;
#X restore 179 52 pd n6;
#N canvas 266 297 450 300 n7 0;
#X obj 20 -178 key;
#X msg 20 -132 1;
#X obj 70 -178 keyup;
#X msg 70 -132 0;
#X obj 71 -10 outlet;
#X obj 5 -11 outlet;
#X obj 21 -155 sel 55;
#X obj 70 -155 sel 55;
#X connect 0 0 6 0;
#X connect 1 0 5 0;
#X connect 2 0 7 0;
#X connect 3 0 4 0;
#X connect 6 0 1 0;
#X connect 7 0 3 0;
#X restore 93 14 pd n7;
#N canvas 263 297 450 300 n8 0;
#X obj 20 -178 key;
#X msg 20 -132 1;
#X obj 70 -178 keyup;
#X msg 70 -132 0;
#X obj 71 -10 outlet;
#X obj 5 -11 outlet;
#X obj 21 -154 sel 56;
#X obj 70 -155 sel 56;
#X connect 0 0 6 0;
#X connect 1 0 5 0;
#X connect 2 0 7 0;
#X connect 3 0 4 0;
#X connect 6 0 1 0;
#X connect 7 0 3 0;
#X restore 131 12 pd n8;
#N canvas 260 297 450 300 n9 0;
#X obj 20 -178 key;
#X msg 20 -132 1;
#X obj 70 -178 keyup;
#X msg 70 -132 0;
#X obj 71 -10 outlet;
#X obj 5 -11 outlet;
#X obj 21 -154 sel 57;
#X obj 70 -155 sel 57;
#X connect 0 0 6 0;
#X connect 1 0 5 0;
#X connect 2 0 7 0;
#X connect 3 0 4 0;
#X connect 6 0 1 0;
#X connect 7 0 3 0;
#X restore 171 12 pd n9;
#X obj 132 229 vsl 41 18 0 1 0 0 empty empty Reset 7 8 0 10 -262144
-1 -1 0 1;
#X obj 111 229 vsl 20 18 0 1 0 0 empty empty 0 8 8 0 10 -262144 -1
-1 0 1;
#N canvas 260 297 450 300 n0 0;
#X obj 20 -178 key;
#X msg 20 -132 1;
#X obj 70 -178 keyup;
#X msg 70 -132 0;
#X obj 71 -10 outlet;
#X obj 5 -11 outlet;
#X obj 21 -154 sel 48;
#X obj 70 -155 sel 48;
#X connect 0 0 6 0;
#X connect 1 0 5 0;
#X connect 2 0 7 0;
#X connect 3 0 4 0;
#X connect 6 0 1 0;
#X connect 7 0 3 0;
#X restore 211 102 pd n0;
#N canvas 257 297 450 300 OK 0;
#X obj 20 -178 key;
#X msg 20 -132 1;
#X obj 70 -178 keyup;
#X msg 70 -132 0;
#X obj 71 -10 outlet;
#X obj 5 -11 outlet;
#X obj 21 -154 sel 10;
#X obj 70 -155 sel 10;
#X connect 0 0 6 0;
#X connect 1 0 5 0;
#X connect 2 0 7 0;
#X connect 3 0 4 0;
#X connect 6 0 1 0;
#X connect 7 0 3 0;
#X restore 251 102 pd OK;
#X msg 240 257 0;
#X obj -76 385 +;
#X obj -115 332 moses 1;
#X floatatom -76 413 5 0 0 0 - - -;
#X obj -76 439 sel 1;
#X obj -76 468 bng 15 250 50 0 empty empty empty 17 7 0 10 -262144
-1 -1;
#X obj 4 385 +;
#X obj -35 332 moses 1;
#X floatatom 4 413 5 0 0 0 - - -;
#X obj 4 468 bng 15 250 50 0 empty empty empty 17 7 0 10 -262144 -1
-1;
#X obj 84 385 +;
#X obj 45 332 moses 1;
#X floatatom 84 413 5 0 0 0 - - -;
#X obj 84 468 bng 15 250 50 0 empty empty empty 17 7 0 10 -262144 -1
-1;
#X obj 164 385 +;
#X obj 125 332 moses 1;
#X floatatom 164 413 5 0 0 0 - - -;
#X obj 164 468 bng 15 250 50 0 empty empty empty 17 7 0 10 -262144
-1 -1;
#X obj 4 439 sel 2;
#X obj 84 439 sel 3;
#X obj 164 439 sel 4;
#X obj 244 385 +;
#X obj 205 332 moses 1;
#X floatatom 244 413 5 0 0 0 - - -;
#X obj 244 468 bng 15 250 50 0 empty empty empty 17 7 0 10 -262144
-1 -1;
#X obj 244 439 sel 5;
#X obj 324 385 +;
#X obj 285 332 moses 1;
#X floatatom 324 413 5 0 0 0 - - -;
#X obj 324 468 bng 15 250 50 0 empty empty empty 17 7 0 10 -262144
-1 -1;
#X obj 324 439 sel 6;
#X obj 404 385 +;
#X obj 365 332 moses 1;
#X floatatom 404 413 5 0 0 0 - - -;
#X obj 404 468 bng 15 250 50 0 empty empty empty 17 7 0 10 -262144
-1 -1;
#X obj 404 439 sel 7;
#X obj 484 385 +;
#X obj 445 332 moses 1;
#X floatatom 484 413 5 0 0 0 - - -;
#X obj 484 468 bng 15 250 50 0 empty empty empty 17 7 0 10 -262144
-1 -1;
#X obj 484 439 sel 8;
#X obj 564 385 +;
#X obj 525 332 moses 1;
#X floatatom 564 413 5 0 0 0 - - -;
#X obj 564 468 bng 15 250 50 0 empty empty empty 17 7 0 10 -262144
-1 -1;
#X obj 564 439 sel 9;
#X obj 644 385 +;
#X obj 605 332 moses 1;
#X floatatom 644 413 5 0 0 0 - - -;
#X obj 644 468 bng 15 250 50 0 empty empty empty 17 7 0 10 -262144
-1 -1;
#X obj -61 332 - 5;
#X obj -85 362 + 5;
#X obj 99 332 - 1;
#X obj 78 357 + 3;
#X obj 179 332 - 1;
#X obj 158 357 + 4;
#X obj 19 332 - 1;
#X obj -2 357 + 2;
#X obj 238 357 + 5;
#X obj 259 332 - 1;
#X obj 339 332 - 1;
#X obj 318 357 + 6;
#X obj 398 357 + 7;
#X obj 419 332 - 1;
#X obj 499 332 - 1;
#X obj 478 357 + 8;
#X obj 558 357 + 9;
#X obj 579 332 - 1;
#X obj 632 357 + 10;
#X obj 659 332 - 1;
#X obj 644 439 sel 10;
#X obj 724 385 +;
#X obj 685 332 moses 1;
#X floatatom 724 413 5 0 0 0 - - -;
#X obj 724 468 bng 15 250 50 0 empty empty empty 17 7 0 10 -262144
-1 -1;
#X obj 739 332 - 1;
#X obj 712 357 + 11;
#X obj 724 439 sel 11;
#X obj 684 307 bng 15 250 50 0 empty empty empty 17 7 0 10 -262144
-1 -1;
#X obj -3 508 s sawtooth;
#X obj 76 510 s square;
#X obj 635 505 s violin;
#X obj 399 513 s trumpet;
#X obj -78 509 s sinusoid;
#X obj 159 512 s flute;
#X obj 240 509 s oboe;
#X obj 315 514 s clarinet;
#X obj 478 513 s french_horn;
#X obj 565 514 s tuba;
#X obj 719 506 s cello;
#X obj -131 440 loadbang;
#X connect 0 0 64 0;
#X connect 1 0 54 0;
#X connect 2 0 59 0;
#X connect 3 0 49 0;
#X connect 4 0 37 0;
#X connect 5 0 44 0;
#X connect 6 0 33 0;
#X connect 7 0 24 0;
#X connect 7 0 91 0;
#X connect 7 0 94 0;
#X connect 7 0 100 0;
#X connect 8 0 29 0;
#X connect 9 0 7 0;
#X connect 9 1 7 0;
#X connect 10 0 8 0;
#X connect 10 1 8 0;
#X connect 11 0 6 0;
#X connect 11 1 6 0;
#X connect 12 0 4 0;
#X connect 12 1 4 0;
#X connect 13 0 5 0;
#X connect 13 1 5 0;
#X connect 14 0 3 0;
#X connect 14 1 3 0;
#X connect 15 0 1 0;
#X connect 15 1 1 0;
#X connect 16 0 2 0;
#X connect 16 1 2 0;
#X connect 17 0 0 0;
#X connect 17 1 0 0;
#X connect 18 0 22 0;
#X connect 19 0 72 0;
#X connect 19 0 74 0;
#X connect 19 0 76 0;
#X connect 19 0 78 0;
#X connect 19 0 81 0;
#X connect 19 0 82 0;
#X connect 19 0 85 0;
#X connect 19 0 86 0;
#X connect 19 0 89 0;
#X connect 19 0 69 0;
#X connect 20 0 19 0;
#X connect 20 1 19 0;
#X connect 21 0 18 0;
#X connect 21 1 18 0;
#X connect 22 0 23 0;
#X connect 22 0 23 1;
#X connect 22 0 28 0;
#X connect 22 0 28 1;
#X connect 22 0 32 0;
#X connect 22 0 32 1;
#X connect 22 0 36 0;
#X connect 22 0 36 1;
#X connect 22 0 43 0;
#X connect 22 0 43 1;
#X connect 22 0 48 0;
#X connect 22 0 48 1;
#X connect 22 0 53 0;
#X connect 22 0 53 1;
#X connect 22 0 58 1;
#X connect 22 0 58 0;
#X connect 22 0 63 0;
#X connect 22 0 63 1;
#X connect 22 0 68 0;
#X connect 22 0 68 1;
#X connect 22 0 93 0;
#X connect 22 0 93 1;
#X connect 23 0 25 0;
#X connect 24 1 73 0;
#X connect 25 0 26 0;
#X connect 26 0 27 0;
#X connect 27 0 105 0;
#X connect 28 0 30 0;
#X connect 29 1 79 0;
#X connect 30 0 40 0;
#X connect 31 0 101 0;
#X connect 32 0 34 0;
#X connect 33 1 75 0;
#X connect 34 0 41 0;
#X connect 35 0 102 0;
#X connect 36 0 38 0;
#X connect 37 1 77 0;
#X connect 38 0 42 0;
#X connect 39 0 106 0;
#X connect 40 0 31 0;
#X connect 41 0 35 0;
#X connect 42 0 39 0;
#X connect 43 0 45 0;
#X connect 44 1 80 0;
#X connect 45 0 47 0;
#X connect 46 0 107 0;
#X connect 47 0 46 0;
#X connect 48 0 50 0;
#X connect 49 1 83 0;
#X connect 50 0 52 0;
#X connect 51 0 108 0;
#X connect 52 0 51 0;
#X connect 53 0 55 0;
#X connect 54 1 84 0;
#X connect 55 0 57 0;
#X connect 56 0 104 0;
#X connect 57 0 56 0;
#X connect 58 0 60 0;
#X connect 59 1 87 0;
#X connect 60 0 62 0;
#X connect 61 0 109 0;
#X connect 62 0 61 0;
#X connect 63 0 65 0;
#X connect 64 1 88 0;
#X connect 65 0 67 0;
#X connect 66 0 110 0;
#X connect 67 0 66 0;
#X connect 68 0 70 0;
#X connect 69 1 90 0;
#X connect 70 0 92 0;
#X connect 71 0 103 0;
#X connect 72 0 23 1;
#X connect 73 0 23 0;
#X connect 74 0 32 1;
#X connect 75 0 32 0;
#X connect 76 0 36 1;
#X connect 77 0 36 0;
#X connect 78 0 28 1;
#X connect 79 0 28 0;
#X connect 80 0 43 0;
#X connect 81 0 43 1;
#X connect 82 0 48 1;
#X connect 83 0 48 0;
#X connect 84 0 53 0;
#X connect 85 0 53 1;
#X connect 86 0 58 1;
#X connect 87 0 58 0;
#X connect 88 0 63 0;
#X connect 89 0 63 1;
#X connect 90 0 68 0;
#X connect 91 0 68 1;
#X connect 92 0 71 0;
#X connect 93 0 95 0;
#X connect 94 1 98 0;
#X connect 95 0 99 0;
#X connect 96 0 111 0;
#X connect 97 0 93 1;
#X connect 98 0 93 0;
#X connect 99 0 96 0;
#X connect 100 0 97 0;
#X connect 112 0 27 0;
#X coords 0 -1 1 1 64 90 1 110 160;
