#N canvas 96 181 1111 687 10;
#X obj -60 155 vsl 20 128 0 1 0 0 empty color_tasto43 empty 0 -9 0
10 -262144 -195568 -33289 0 1;
#X obj -39 155 vsl 20 128 0 1 0 0 empty color_tasto45 empty 0 -9 0
10 -262144 -195568 -33289 0 1;
#N canvas 179 363 450 300 colore_pulsante 0;
#X obj 82 35 inlet;
#X msg 83 152 color \$1 20 12;
#X msg 118 118 6;
#X msg 83 118 0;
#X obj 83 83 select 0;
#X obj 84 192 s color_tasto43;
#X connect 0 0 4 0;
#X connect 1 0 5 0;
#X connect 2 0 1 0;
#X connect 3 0 1 0;
#X connect 4 0 3 0;
#X connect 4 1 2 0;
#X restore -102 378 pd colore_pulsante;
#N canvas 179 363 450 300 colore_pulsante 0;
#X obj 82 35 inlet;
#X msg 83 152 color \$1 20 12;
#X msg 118 118 6;
#X msg 83 118 0;
#X obj 83 83 select 0;
#X obj 82 192 s color_tasto45;
#X connect 0 0 4 0;
#X connect 1 0 5 0;
#X connect 2 0 1 0;
#X connect 3 0 1 0;
#X connect 4 0 3 0;
#X connect 4 1 2 0;
#X restore -84 338 pd colore_pulsante;
#X obj -47 155 vsl 15 80 0 1 0 0 empty color_tasto44 empty 0 -9 0 10
-66577 -195568 -33289 0 1;
#N canvas 179 363 450 300 colore_pulsante 0;
#X obj 82 35 inlet;
#X msg 84 153 color \$1 20 12;
#X obj 83 83 select 0;
#X msg 83 117 2;
#X msg 118 118 16;
#X obj 84 192 s color_tasto44;
#X connect 0 0 2 0;
#X connect 1 0 5 0;
#X connect 2 0 3 0;
#X connect 2 1 4 0;
#X connect 3 0 1 0;
#X connect 4 0 1 0;
#X restore -91 358 pd colore_pulsante;
#X obj -81 155 vsl 20 128 0 1 0 0 empty color_tasto41 empty 0 -9 0
10 -262144 -195568 -33289 0 1;
#N canvas 179 363 450 300 colore_pulsante 0;
#X obj 82 35 inlet;
#X msg 83 152 color \$1 20 12;
#X msg 118 118 6;
#X msg 83 118 0;
#X obj 83 83 select 0;
#X obj 82 192 s color_tasto41;
#X connect 0 0 4 0;
#X connect 1 0 5 0;
#X connect 2 0 1 0;
#X connect 3 0 1 0;
#X connect 4 0 3 0;
#X connect 4 1 2 0;
#X restore -115 418 pd colore_pulsante;
#X obj -67 155 vsl 15 80 0 1 0 0 empty color_tasto42 empty 0 -9 0 10
-66577 -195568 -33289 0 1;
#N canvas 179 363 450 300 colore_pulsante 0;
#X obj 82 35 inlet;
#X msg 84 153 color \$1 20 12;
#X obj 83 83 select 0;
#X msg 83 117 2;
#X msg 118 118 16;
#X obj 85 193 s color_tasto42;
#X connect 0 0 2 0;
#X connect 1 0 5 0;
#X connect 2 0 3 0;
#X connect 2 1 4 0;
#X connect 3 0 1 0;
#X connect 4 0 1 0;
#X restore -110 398 pd colore_pulsante;
#X obj -123 155 vsl 20 128 0 1 0 0 empty color_tasto38 empty 0 -9 0
10 -262144 -195568 -33289 0 1;
#X obj -102 155 vsl 20 128 0 1 0 0 empty color_tasto40 empty 0 -9 0
10 -262144 -195568 -33289 0 1;
#X obj -110 155 vsl 15 80 0 1 0 0 empty color_tasto39 empty 0 -9 0
10 -66577 -195568 -33289 0 1;
#X obj -144 155 vsl 20 128 0 1 0 0 empty color_tasto36 empty 0 -9 0
10 -262144 -195568 -33289 0 1;
#X obj -130 155 vsl 15 80 0 1 0 0 empty color_tasto37 empty 0 -9 0
10 -66577 -195568 -33289 0 1;
#X obj -18 155 vsl 20 128 0 1 0 0 empty color_tasto47 empty 0 -9 0
10 -262144 -195568 -33289 0 1;
#X obj -26 155 vsl 15 80 0 1 0 0 empty color_tasto46 empty 0 -9 0 10
-66577 -195568 -33289 0 1;
#N canvas 179 363 450 300 colore_pulsante 0;
#X obj 82 35 inlet;
#X msg 83 152 color \$1 20 12;
#X msg 118 118 6;
#X msg 83 118 0;
#X obj 83 83 select 0;
#X obj 82 192 s color_tasto47;
#X connect 0 0 4 0;
#X connect 1 0 5 0;
#X connect 2 0 1 0;
#X connect 3 0 1 0;
#X connect 4 0 3 0;
#X connect 4 1 2 0;
#X restore -68 299 pd colore_pulsante;
#N canvas 179 363 450 300 colore_pulsante 0;
#X obj 82 35 inlet;
#X msg 84 153 color \$1 20 12;
#X obj 83 83 select 0;
#X msg 83 117 2;
#X msg 118 118 16;
#X obj 84 192 s color_tasto46;
#X connect 0 0 2 0;
#X connect 1 0 5 0;
#X connect 2 0 3 0;
#X connect 2 1 4 0;
#X connect 3 0 1 0;
#X connect 4 0 1 0;
#X restore -74 319 pd colore_pulsante;
#N canvas 179 363 450 300 colore_pulsante 0;
#X obj 82 35 inlet;
#X msg 83 152 color \$1 20 12;
#X msg 118 118 6;
#X msg 83 118 0;
#X obj 83 83 select 0;
#X obj 84 192 s color_tasto40;
#X connect 0 0 4 0;
#X connect 1 0 5 0;
#X connect 2 0 1 0;
#X connect 3 0 1 0;
#X connect 4 0 3 0;
#X connect 4 1 2 0;
#X restore -121 437 pd colore_pulsante;
#N canvas 179 363 450 300 colore_pulsante 0;
#X obj 82 35 inlet;
#X msg 83 152 color \$1 20 12;
#X msg 118 118 6;
#X msg 83 118 0;
#X obj 83 83 select 0;
#X obj 82 192 s color_tasto38;
#X connect 0 0 4 0;
#X connect 1 0 5 0;
#X connect 2 0 1 0;
#X connect 3 0 1 0;
#X connect 4 0 3 0;
#X connect 4 1 2 0;
#X restore -133 477 pd colore_pulsante;
#N canvas 179 363 450 300 colore_pulsante 0;
#X obj 82 35 inlet;
#X msg 84 153 color \$1 20 12;
#X obj 83 83 select 0;
#X msg 83 117 2;
#X msg 118 118 16;
#X obj 85 193 s color_tasto39;
#X connect 0 0 2 0;
#X connect 1 0 5 0;
#X connect 2 0 3 0;
#X connect 2 1 4 0;
#X connect 3 0 1 0;
#X connect 4 0 1 0;
#X restore -127 457 pd colore_pulsante;
#N canvas 179 363 450 300 colore_pulsante 0;
#X obj 82 35 inlet;
#X msg 83 152 color \$1 20 12;
#X msg 118 118 6;
#X msg 83 118 0;
#X obj 83 83 select 0;
#X obj 82 192 s color_tasto36;
#X connect 0 0 4 0;
#X connect 1 0 5 0;
#X connect 2 0 1 0;
#X connect 3 0 1 0;
#X connect 4 0 3 0;
#X connect 4 1 2 0;
#X restore -145 517 pd colore_pulsante;
#N canvas 179 363 450 300 colore_pulsante 0;
#X obj 82 35 inlet;
#X msg 84 153 color \$1 20 12;
#X obj 83 83 select 0;
#X msg 83 117 2;
#X msg 118 118 16;
#X obj 85 193 s color_tasto37;
#X connect 0 0 2 0;
#X connect 1 0 5 0;
#X connect 2 0 3 0;
#X connect 2 1 4 0;
#X connect 3 0 1 0;
#X connect 4 0 1 0;
#X restore -140 497 pd colore_pulsante;
#X obj 87 155 vsl 20 128 0 1 0 0 empty color_tasto55 empty 0 -9 0 10
-262144 -195568 -33289 0 1;
#X obj 108 155 vsl 20 128 0 1 0 0 empty color_tasto57 empty 0 -9 0
10 -262144 -195568 -33289 0 1;
#N canvas 176 363 450 300 colore_pulsante 0;
#X obj 82 35 inlet;
#X msg 83 152 color \$1 20 12;
#X msg 118 118 6;
#X msg 83 118 0;
#X obj 83 83 select 0;
#X obj 84 192 s color_tasto55;
#X connect 0 0 4 0;
#X connect 1 0 5 0;
#X connect 2 0 1 0;
#X connect 3 0 1 0;
#X connect 4 0 3 0;
#X connect 4 1 2 0;
#X restore 42 378 pd colore_pulsante;
#N canvas 176 363 450 300 colore_pulsante 0;
#X obj 82 35 inlet;
#X msg 118 118 6;
#X msg 83 118 0;
#X obj 83 83 select 0;
#X msg 83 152 color \$1 20 12;
#X obj 82 192 s color_tasto57;
#X connect 0 0 3 0;
#X connect 1 0 4 0;
#X connect 2 0 4 0;
#X connect 3 0 2 0;
#X connect 3 1 1 0;
#X connect 4 0 5 0;
#X restore 60 338 pd colore_pulsante;
#X obj 100 155 vsl 15 80 0 1 0 0 empty color_tasto56 empty 0 -9 0 10
-66577 -195568 -33289 0 1;
#N canvas 176 363 450 300 colore_pulsante 0;
#X obj 82 35 inlet;
#X msg 84 153 color \$1 20 12;
#X obj 83 83 select 0;
#X msg 83 117 2;
#X msg 118 118 16;
#X obj 84 192 s color_tasto56;
#X connect 0 0 2 0;
#X connect 1 0 5 0;
#X connect 2 0 3 0;
#X connect 2 1 4 0;
#X connect 3 0 1 0;
#X connect 4 0 1 0;
#X restore 53 358 pd colore_pulsante;
#X obj 66 155 vsl 20 128 0 1 0 0 empty color_tasto53 empty 0 -9 0 10
-262144 -195568 -33289 0 1;
#N canvas 176 363 450 300 colore_pulsante 0;
#X obj 82 35 inlet;
#X msg 83 152 color \$1 20 12;
#X msg 118 118 6;
#X msg 83 118 0;
#X obj 83 83 select 0;
#X obj 82 192 s color_tasto53;
#X connect 0 0 4 0;
#X connect 1 0 5 0;
#X connect 2 0 1 0;
#X connect 3 0 1 0;
#X connect 4 0 3 0;
#X connect 4 1 2 0;
#X restore 29 418 pd colore_pulsante;
#X obj 80 155 vsl 15 80 0 1 0 0 empty color_tasto54 empty 0 -9 0 10
-66577 -195568 -33289 0 1;
#N canvas 176 363 450 300 colore_pulsante 0;
#X obj 82 35 inlet;
#X msg 84 153 color \$1 20 12;
#X obj 83 83 select 0;
#X msg 83 117 2;
#X msg 118 118 16;
#X obj 85 193 s color_tasto54;
#X connect 0 0 2 0;
#X connect 1 0 5 0;
#X connect 2 0 3 0;
#X connect 2 1 4 0;
#X connect 3 0 1 0;
#X connect 4 0 1 0;
#X restore 34 398 pd colore_pulsante;
#X obj 24 155 vsl 20 128 0 1 0 0 empty color_tasto50 empty 0 -9 0 10
-262144 -195568 -33289 0 1;
#X obj 45 155 vsl 20 128 0 1 0 0 empty color_tasto52 empty 0 -9 0 10
-262144 -195568 -33289 0 1;
#X obj 37 155 vsl 15 80 0 1 0 0 empty color_tasto51 empty 0 -9 0 10
-66577 -195568 -33289 0 1;
#X obj 3 155 vsl 20 128 0 1 0 0 empty color_tasto48 empty 0 -9 0 10
-262144 -195568 -33289 0 1;
#X obj 17 155 vsl 15 80 0 1 0 0 empty color_tasto49 empty 0 -9 0 10
-66577 -195568 -33289 0 1;
#X obj 129 155 vsl 20 128 0 1 0 0 empty color_tasto59 empty 0 -9 0
10 -262144 -195568 -33289 0 1;
#X obj 121 155 vsl 15 80 0 1 0 0 empty color_tasto58 empty 0 -9 0 10
-66577 -195568 -33289 0 1;
#N canvas 176 363 450 300 colore_pulsante 0;
#X obj 82 35 inlet;
#X msg 83 152 color \$1 20 12;
#X msg 118 118 6;
#X msg 83 118 0;
#X obj 83 83 select 0;
#X obj 82 192 s color_tasto59;
#X connect 0 0 4 0;
#X connect 1 0 5 0;
#X connect 2 0 1 0;
#X connect 3 0 1 0;
#X connect 4 0 3 0;
#X connect 4 1 2 0;
#X restore 76 299 pd colore_pulsante;
#N canvas 176 363 450 300 colore_pulsante 0;
#X obj 82 35 inlet;
#X msg 84 153 color \$1 20 12;
#X obj 83 83 select 0;
#X msg 83 117 2;
#X msg 118 118 16;
#X obj 84 192 s color_tasto58;
#X connect 0 0 2 0;
#X connect 1 0 5 0;
#X connect 2 0 3 0;
#X connect 2 1 4 0;
#X connect 3 0 1 0;
#X connect 4 0 1 0;
#X restore 70 319 pd colore_pulsante;
#N canvas 176 363 450 300 colore_pulsante 0;
#X obj 82 35 inlet;
#X msg 83 152 color \$1 20 12;
#X msg 118 118 6;
#X msg 83 118 0;
#X obj 83 83 select 0;
#X obj 84 192 s color_tasto52;
#X connect 0 0 4 0;
#X connect 1 0 5 0;
#X connect 2 0 1 0;
#X connect 3 0 1 0;
#X connect 4 0 3 0;
#X connect 4 1 2 0;
#X restore 23 437 pd colore_pulsante;
#N canvas 176 363 450 300 colore_pulsante 0;
#X obj 82 35 inlet;
#X msg 83 152 color \$1 20 12;
#X msg 118 118 6;
#X msg 83 118 0;
#X obj 83 83 select 0;
#X obj 82 192 s color_tasto50;
#X connect 0 0 4 0;
#X connect 1 0 5 0;
#X connect 2 0 1 0;
#X connect 3 0 1 0;
#X connect 4 0 3 0;
#X connect 4 1 2 0;
#X restore 11 477 pd colore_pulsante;
#N canvas 176 363 450 300 colore_pulsante 0;
#X obj 82 35 inlet;
#X msg 84 153 color \$1 20 12;
#X obj 83 83 select 0;
#X msg 83 117 2;
#X msg 118 118 16;
#X obj 85 193 s color_tasto51;
#X connect 0 0 2 0;
#X connect 1 0 5 0;
#X connect 2 0 3 0;
#X connect 2 1 4 0;
#X connect 3 0 1 0;
#X connect 4 0 1 0;
#X restore 17 457 pd colore_pulsante;
#N canvas 176 363 450 300 colore_pulsante 0;
#X obj 82 35 inlet;
#X msg 83 152 color \$1 20 12;
#X msg 118 118 6;
#X msg 83 118 0;
#X obj 83 83 select 0;
#X obj 82 192 s color_tasto48;
#X connect 0 0 4 0;
#X connect 1 0 5 0;
#X connect 2 0 1 0;
#X connect 3 0 1 0;
#X connect 4 0 3 0;
#X connect 4 1 2 0;
#X restore -1 517 pd colore_pulsante;
#N canvas 176 363 450 300 colore_pulsante 0;
#X obj 82 35 inlet;
#X msg 84 153 color \$1 20 12;
#X obj 83 83 select 0;
#X msg 83 117 2;
#X msg 118 118 16;
#X obj 85 193 s color_tasto49;
#X connect 0 0 2 0;
#X connect 1 0 5 0;
#X connect 2 0 3 0;
#X connect 2 1 4 0;
#X connect 3 0 1 0;
#X connect 4 0 1 0;
#X restore 4 497 pd colore_pulsante;
#X obj 234 155 vsl 20 128 0 1 0 0 empty color_tasto67 empty 0 -9 0
10 -262144 -195568 -33289 0 1;
#X obj 255 155 vsl 20 128 0 1 0 0 empty color_tasto69 empty 0 -9 0
10 -262144 -195568 -33289 0 1;
#N canvas 173 363 450 300 colore_pulsante 0;
#X obj 82 35 inlet;
#X msg 83 152 color \$1 20 12;
#X msg 118 118 6;
#X msg 83 118 0;
#X obj 83 83 select 0;
#X obj 84 192 s color_tasto67;
#X connect 0 0 4 0;
#X connect 1 0 5 0;
#X connect 2 0 1 0;
#X connect 3 0 1 0;
#X connect 4 0 3 0;
#X connect 4 1 2 0;
#X restore 183 378 pd colore_pulsante;
#N canvas 173 363 450 300 colore_pulsante 0;
#X obj 82 35 inlet;
#X msg 118 118 6;
#X msg 83 118 0;
#X obj 83 83 select 0;
#X msg 83 152 color \$1 20 12;
#X obj 82 192 s color_tasto69;
#X connect 0 0 3 0;
#X connect 1 0 4 0;
#X connect 2 0 4 0;
#X connect 3 0 2 0;
#X connect 3 1 1 0;
#X connect 4 0 5 0;
#X restore 201 338 pd colore_pulsante;
#X obj 247 155 vsl 15 80 0 1 0 0 empty color_tasto68 empty 0 -9 0 10
-66577 -195568 -33289 0 1;
#N canvas 173 363 450 300 colore_pulsante 0;
#X obj 82 35 inlet;
#X msg 84 153 color \$1 20 12;
#X obj 83 83 select 0;
#X msg 83 117 2;
#X msg 118 118 16;
#X obj 84 192 s color_tasto68;
#X connect 0 0 2 0;
#X connect 1 0 5 0;
#X connect 2 0 3 0;
#X connect 2 1 4 0;
#X connect 3 0 1 0;
#X connect 4 0 1 0;
#X restore 194 358 pd colore_pulsante;
#X obj 213 155 vsl 20 128 0 1 0 0 empty color_tasto65 empty 0 -9 0
10 -262144 -195568 -33289 0 1;
#N canvas 173 363 450 300 colore_pulsante 0;
#X obj 82 35 inlet;
#X msg 83 152 color \$1 20 12;
#X msg 118 118 6;
#X msg 83 118 0;
#X obj 83 83 select 0;
#X obj 82 192 s color_tasto65;
#X connect 0 0 4 0;
#X connect 1 0 5 0;
#X connect 2 0 1 0;
#X connect 3 0 1 0;
#X connect 4 0 3 0;
#X connect 4 1 2 0;
#X restore 170 418 pd colore_pulsante;
#X obj 227 155 vsl 15 80 0 1 0 0 empty color_tasto66 empty 0 -9 0 10
-66577 -195568 -33289 0 1;
#N canvas 173 363 450 300 colore_pulsante 0;
#X obj 82 35 inlet;
#X msg 84 153 color \$1 20 12;
#X obj 83 83 select 0;
#X msg 83 117 2;
#X msg 118 118 16;
#X obj 85 193 s color_tasto66;
#X connect 0 0 2 0;
#X connect 1 0 5 0;
#X connect 2 0 3 0;
#X connect 2 1 4 0;
#X connect 3 0 1 0;
#X connect 4 0 1 0;
#X restore 175 398 pd colore_pulsante;
#X obj 171 155 vsl 20 128 0 1 0 0 empty color_tasto62 empty 0 -9 0
10 -262144 -195568 -33289 0 1;
#X obj 192 155 vsl 20 128 0 1 0 0 empty color_tasto64 empty 0 -9 0
10 -262144 -195568 -33289 0 1;
#X obj 184 155 vsl 15 80 0 1 0 0 empty color_tasto63 empty 0 -9 0 10
-66577 -195568 -33289 0 1;
#X obj 150 155 vsl 20 128 0 1 0 0 empty color_tasto60 empty 0 -9 0
10 -262144 -195568 -33289 0 1;
#X obj 164 155 vsl 15 80 0 1 0 0 empty color_tasto61 empty 0 -9 0 10
-66577 -195568 -33289 0 1;
#X obj 276 155 vsl 20 128 0 1 0 0 empty color_tasto71 empty 0 -9 0
10 -262144 -195568 -33289 0 1;
#X obj 268 155 vsl 15 80 0 1 0 0 empty color_tasto70 empty 0 -9 0 10
-66577 -195568 -33289 0 1;
#N canvas 173 363 450 300 colore_pulsante 0;
#X obj 82 35 inlet;
#X msg 83 152 color \$1 20 12;
#X msg 118 118 6;
#X msg 83 118 0;
#X obj 83 83 select 0;
#X obj 81 191 s color_tasto71;
#X connect 0 0 4 0;
#X connect 1 0 5 0;
#X connect 2 0 1 0;
#X connect 3 0 1 0;
#X connect 4 0 3 0;
#X connect 4 1 2 0;
#X restore 217 299 pd colore_pulsante;
#N canvas 173 363 450 300 colore_pulsante 0;
#X obj 82 35 inlet;
#X msg 84 153 color \$1 20 12;
#X obj 83 83 select 0;
#X msg 83 117 2;
#X msg 118 118 16;
#X obj 84 192 s color_tasto70;
#X connect 0 0 2 0;
#X connect 1 0 5 0;
#X connect 2 0 3 0;
#X connect 2 1 4 0;
#X connect 3 0 1 0;
#X connect 4 0 1 0;
#X restore 211 319 pd colore_pulsante;
#N canvas 173 363 450 300 colore_pulsante 0;
#X obj 82 35 inlet;
#X msg 83 152 color \$1 20 12;
#X msg 118 118 6;
#X msg 83 118 0;
#X obj 83 83 select 0;
#X obj 84 192 s color_tasto64;
#X connect 0 0 4 0;
#X connect 1 0 5 0;
#X connect 2 0 1 0;
#X connect 3 0 1 0;
#X connect 4 0 3 0;
#X connect 4 1 2 0;
#X restore 164 437 pd colore_pulsante;
#N canvas 173 363 450 300 colore_pulsante 0;
#X obj 82 35 inlet;
#X msg 83 152 color \$1 20 12;
#X msg 118 118 6;
#X msg 83 118 0;
#X obj 83 83 select 0;
#X obj 82 192 s color_tasto62;
#X connect 0 0 4 0;
#X connect 1 0 5 0;
#X connect 2 0 1 0;
#X connect 3 0 1 0;
#X connect 4 0 3 0;
#X connect 4 1 2 0;
#X restore 152 477 pd colore_pulsante;
#N canvas 173 363 450 300 colore_pulsante 0;
#X obj 82 35 inlet;
#X msg 84 153 color \$1 20 12;
#X obj 83 83 select 0;
#X msg 83 117 2;
#X msg 118 118 16;
#X obj 85 193 s color_tasto63;
#X connect 0 0 2 0;
#X connect 1 0 5 0;
#X connect 2 0 3 0;
#X connect 2 1 4 0;
#X connect 3 0 1 0;
#X connect 4 0 1 0;
#X restore 158 457 pd colore_pulsante;
#N canvas 173 363 450 300 colore_pulsante 0;
#X obj 82 35 inlet;
#X msg 83 152 color \$1 20 12;
#X msg 118 118 6;
#X msg 83 118 0;
#X obj 83 83 select 0;
#X obj 83 191 s color_tasto60;
#X connect 0 0 4 0;
#X connect 1 0 5 0;
#X connect 2 0 1 0;
#X connect 3 0 1 0;
#X connect 4 0 3 0;
#X connect 4 1 2 0;
#X restore 140 517 pd colore_pulsante;
#N canvas 173 363 450 300 colore_pulsante 0;
#X obj 82 35 inlet;
#X msg 84 153 color \$1 20 12;
#X obj 83 83 select 0;
#X msg 83 117 2;
#X msg 118 118 16;
#X obj 85 193 s color_tasto61;
#X connect 0 0 2 0;
#X connect 1 0 5 0;
#X connect 2 0 3 0;
#X connect 2 1 4 0;
#X connect 3 0 1 0;
#X connect 4 0 1 0;
#X restore 145 497 pd colore_pulsante;
#X obj 381 155 vsl 20 128 0 1 0 0 empty color_tasto79 empty 0 -9 0
10 -262144 -195568 -33289 0 1;
#X obj 402 155 vsl 20 128 0 1 0 0 empty color_tasto81 empty 0 -9 0
10 -262144 -195568 -33289 0 1;
#N canvas 170 363 450 300 colore_pulsante 0;
#X obj 82 35 inlet;
#X msg 83 152 color \$1 20 12;
#X msg 118 118 6;
#X msg 83 118 0;
#X obj 83 83 select 0;
#X obj 84 192 s color_tasto79;
#X connect 0 0 4 0;
#X connect 1 0 5 0;
#X connect 2 0 1 0;
#X connect 3 0 1 0;
#X connect 4 0 3 0;
#X connect 4 1 2 0;
#X restore 323 378 pd colore_pulsante;
#N canvas 170 363 450 300 colore_pulsante 0;
#X obj 82 35 inlet;
#X msg 118 118 6;
#X msg 83 118 0;
#X obj 83 83 select 0;
#X msg 83 152 color \$1 20 12;
#X obj 82 192 s color_tasto81;
#X connect 0 0 3 0;
#X connect 1 0 4 0;
#X connect 2 0 4 0;
#X connect 3 0 2 0;
#X connect 3 1 1 0;
#X connect 4 0 5 0;
#X restore 341 338 pd colore_pulsante;
#X obj 394 155 vsl 15 80 0 1 0 0 empty color_tasto80 empty 0 -9 0 10
-66577 -195568 -33289 0 1;
#N canvas 170 363 450 300 colore_pulsante 0;
#X obj 82 35 inlet;
#X msg 84 153 color \$1 20 12;
#X obj 83 83 select 0;
#X msg 83 117 2;
#X msg 118 118 16;
#X obj 84 192 s color_tasto80;
#X connect 0 0 2 0;
#X connect 1 0 5 0;
#X connect 2 0 3 0;
#X connect 2 1 4 0;
#X connect 3 0 1 0;
#X connect 4 0 1 0;
#X restore 334 358 pd colore_pulsante;
#X obj 360 155 vsl 20 128 0 1 0 0 empty color_tasto77 empty 0 -9 0
10 -262144 -195568 -33289 0 1;
#N canvas 170 363 450 300 colore_pulsante 0;
#X obj 82 35 inlet;
#X msg 83 152 color \$1 20 12;
#X msg 118 118 6;
#X msg 83 118 0;
#X obj 83 83 select 0;
#X obj 82 192 s color_tasto77;
#X connect 0 0 4 0;
#X connect 1 0 5 0;
#X connect 2 0 1 0;
#X connect 3 0 1 0;
#X connect 4 0 3 0;
#X connect 4 1 2 0;
#X restore 310 418 pd colore_pulsante;
#X obj 374 155 vsl 15 80 0 1 0 0 empty color_tasto78 empty 0 -9 0 10
-66577 -195568 -33289 0 1;
#N canvas 170 363 450 300 colore_pulsante 0;
#X obj 82 35 inlet;
#X msg 84 153 color \$1 20 12;
#X obj 83 83 select 0;
#X msg 83 117 2;
#X msg 118 118 16;
#X obj 85 193 s color_tasto78;
#X connect 0 0 2 0;
#X connect 1 0 5 0;
#X connect 2 0 3 0;
#X connect 2 1 4 0;
#X connect 3 0 1 0;
#X connect 4 0 1 0;
#X restore 315 398 pd colore_pulsante;
#X obj 318 155 vsl 20 128 0 1 0 0 empty color_tasto74 empty 0 -9 0
10 -262144 -195568 -33289 0 1;
#X obj 339 155 vsl 20 128 0 1 0 0 empty color_tasto76 empty 0 -9 0
10 -262144 -195568 -33289 0 1;
#X obj 331 155 vsl 15 80 0 1 0 0 empty color_tasto75 empty 0 -9 0 10
-66577 -195568 -33289 0 1;
#X obj 297 155 vsl 20 128 0 1 0 0 empty color_tasto72 empty 0 -9 0
10 -262144 -195568 -33289 0 1;
#X obj 311 155 vsl 15 80 0 1 0 0 empty color_tasto73 empty 0 -9 0 10
-66577 -195568 -33289 0 1;
#X obj 423 155 vsl 20 128 0 1 0 0 empty color_tasto83 empty 0 -9 0
10 -262144 -195568 -33289 0 1;
#X obj 415 155 vsl 15 80 0 1 0 0 empty color_tasto82 empty 0 -9 0 10
-66577 -195568 -33289 0 1;
#N canvas 170 363 450 300 colore_pulsante 0;
#X obj 82 35 inlet;
#X msg 83 152 color \$1 20 12;
#X msg 118 118 6;
#X msg 83 118 0;
#X obj 83 83 select 0;
#X obj 81 191 s color_tasto83;
#X connect 0 0 4 0;
#X connect 1 0 5 0;
#X connect 2 0 1 0;
#X connect 3 0 1 0;
#X connect 4 0 3 0;
#X connect 4 1 2 0;
#X restore 357 299 pd colore_pulsante;
#N canvas 170 363 450 300 colore_pulsante 0;
#X obj 82 35 inlet;
#X msg 84 153 color \$1 20 12;
#X obj 83 83 select 0;
#X msg 83 117 2;
#X msg 118 118 16;
#X obj 84 192 s color_tasto82;
#X connect 0 0 2 0;
#X connect 1 0 5 0;
#X connect 2 0 3 0;
#X connect 2 1 4 0;
#X connect 3 0 1 0;
#X connect 4 0 1 0;
#X restore 351 319 pd colore_pulsante;
#N canvas 170 363 450 300 colore_pulsante 0;
#X obj 82 35 inlet;
#X msg 83 152 color \$1 20 12;
#X msg 118 118 6;
#X msg 83 118 0;
#X obj 83 83 select 0;
#X obj 84 192 s color_tasto76;
#X connect 0 0 4 0;
#X connect 1 0 5 0;
#X connect 2 0 1 0;
#X connect 3 0 1 0;
#X connect 4 0 3 0;
#X connect 4 1 2 0;
#X restore 304 437 pd colore_pulsante;
#N canvas 170 363 450 300 colore_pulsante 0;
#X obj 82 35 inlet;
#X msg 83 152 color \$1 20 12;
#X msg 118 118 6;
#X msg 83 118 0;
#X obj 83 83 select 0;
#X obj 82 192 s color_tasto74;
#X connect 0 0 4 0;
#X connect 1 0 5 0;
#X connect 2 0 1 0;
#X connect 3 0 1 0;
#X connect 4 0 3 0;
#X connect 4 1 2 0;
#X restore 292 477 pd colore_pulsante;
#N canvas 170 363 450 300 colore_pulsante 0;
#X obj 82 35 inlet;
#X msg 84 153 color \$1 20 12;
#X obj 83 83 select 0;
#X msg 83 117 2;
#X msg 118 118 16;
#X obj 85 193 s color_tasto75;
#X connect 0 0 2 0;
#X connect 1 0 5 0;
#X connect 2 0 3 0;
#X connect 2 1 4 0;
#X connect 3 0 1 0;
#X connect 4 0 1 0;
#X restore 298 457 pd colore_pulsante;
#N canvas 170 363 450 300 colore_pulsante 0;
#X obj 82 35 inlet;
#X msg 83 152 color \$1 20 12;
#X msg 118 118 6;
#X msg 83 118 0;
#X obj 83 83 select 0;
#X obj 83 191 s color_tasto72;
#X connect 0 0 4 0;
#X connect 1 0 5 0;
#X connect 2 0 1 0;
#X connect 3 0 1 0;
#X connect 4 0 3 0;
#X connect 4 1 2 0;
#X restore 280 517 pd colore_pulsante;
#N canvas 170 363 450 300 colore_pulsante 0;
#X obj 82 35 inlet;
#X msg 84 153 color \$1 20 12;
#X obj 83 83 select 0;
#X msg 83 117 2;
#X msg 118 118 16;
#X obj 85 193 s color_tasto73;
#X connect 0 0 2 0;
#X connect 1 0 5 0;
#X connect 2 0 3 0;
#X connect 2 1 4 0;
#X connect 3 0 1 0;
#X connect 4 0 1 0;
#X restore 285 497 pd colore_pulsante;
#X obj 528 155 vsl 20 128 0 1 0 0 empty color_tasto91 empty 0 -9 0
10 -262144 -195568 -33289 0 1;
#X obj 549 155 vsl 20 128 0 1 0 0 empty color_tasto93 empty 0 -9 0
10 -262144 -195568 -33289 0 1;
#N canvas 170 363 450 300 colore_pulsante 0;
#X obj 82 35 inlet;
#X msg 83 152 color \$1 20 12;
#X msg 118 118 6;
#X msg 83 118 0;
#X obj 83 83 select 0;
#X obj 84 192 s color_tasto91;
#X connect 0 0 4 0;
#X connect 1 0 5 0;
#X connect 2 0 1 0;
#X connect 3 0 1 0;
#X connect 4 0 3 0;
#X connect 4 1 2 0;
#X restore 489 378 pd colore_pulsante;
#N canvas 170 363 450 300 colore_pulsante 0;
#X obj 82 35 inlet;
#X msg 118 118 6;
#X msg 83 118 0;
#X obj 83 83 select 0;
#X msg 83 152 color \$1 20 12;
#X obj 82 192 s color_tasto93;
#X connect 0 0 3 0;
#X connect 1 0 4 0;
#X connect 2 0 4 0;
#X connect 3 0 2 0;
#X connect 3 1 1 0;
#X connect 4 0 5 0;
#X restore 507 338 pd colore_pulsante;
#X obj 541 155 vsl 15 80 0 1 0 0 empty color_tasto92 empty 0 -9 0 10
-66577 -195568 -33289 0 1;
#N canvas 170 363 450 300 colore_pulsante 0;
#X obj 82 35 inlet;
#X msg 84 153 color \$1 20 12;
#X obj 83 83 select 0;
#X msg 83 117 2;
#X msg 118 118 16;
#X obj 84 192 s color_tasto92;
#X connect 0 0 2 0;
#X connect 1 0 5 0;
#X connect 2 0 3 0;
#X connect 2 1 4 0;
#X connect 3 0 1 0;
#X connect 4 0 1 0;
#X restore 500 358 pd colore_pulsante;
#X obj 507 155 vsl 20 128 0 1 0 0 empty color_tasto89 empty 0 -9 0
10 -262144 -195568 -33289 0 1;
#N canvas 170 363 450 300 colore_pulsante 0;
#X obj 82 35 inlet;
#X msg 83 152 color \$1 20 12;
#X msg 118 118 6;
#X msg 83 118 0;
#X obj 83 83 select 0;
#X obj 83 191 s color_tasto89;
#X connect 0 0 4 0;
#X connect 1 0 5 0;
#X connect 2 0 1 0;
#X connect 3 0 1 0;
#X connect 4 0 3 0;
#X connect 4 1 2 0;
#X restore 476 418 pd colore_pulsante;
#X obj 521 155 vsl 15 80 0 1 0 0 empty color_tasto90 empty 0 -9 0 10
-66577 -195568 -33289 0 1;
#N canvas 170 363 450 300 colore_pulsante 0;
#X obj 82 35 inlet;
#X msg 84 153 color \$1 20 12;
#X obj 83 83 select 0;
#X msg 83 117 2;
#X msg 118 118 16;
#X obj 85 193 s color_tasto90;
#X connect 0 0 2 0;
#X connect 1 0 5 0;
#X connect 2 0 3 0;
#X connect 2 1 4 0;
#X connect 3 0 1 0;
#X connect 4 0 1 0;
#X restore 481 398 pd colore_pulsante;
#X obj 465 155 vsl 20 128 0 1 0 0 empty color_tasto86 empty 0 -9 0
10 -262144 -195568 -33289 0 1;
#X obj 486 155 vsl 20 128 0 1 0 0 empty color_tasto88 empty 0 -9 0
10 -262144 -195568 -33289 0 1;
#X obj 478 155 vsl 15 80 0 1 0 0 empty color_tasto87 empty 0 -9 0 10
-66577 -195568 -33289 0 1;
#X obj 444 155 vsl 20 128 0 1 0 0 empty color_tasto84 empty 0 -9 0
10 -262144 -195568 -33289 0 1;
#X obj 458 155 vsl 15 80 0 1 0 0 empty color_tasto85 empty 0 -9 0 10
-66577 -195568 -33289 0 1;
#X obj 570 155 vsl 20 128 0 1 0 0 empty color_tasto95 empty 0 -9 0
10 -262144 -195568 -33289 0 1;
#X obj 562 155 vsl 15 80 0 1 0 0 empty color_tasto94 empty 0 -9 0 10
-66577 -195568 -33289 0 1;
#N canvas 170 363 450 300 colore_pulsante 0;
#X obj 82 35 inlet;
#X msg 83 152 color \$1 20 12;
#X msg 118 118 6;
#X msg 83 118 0;
#X obj 83 83 select 0;
#X obj 81 191 s color_tasto95;
#X connect 0 0 4 0;
#X connect 1 0 5 0;
#X connect 2 0 1 0;
#X connect 3 0 1 0;
#X connect 4 0 3 0;
#X connect 4 1 2 0;
#X restore 523 299 pd colore_pulsante;
#N canvas 167 363 450 300 colore_pulsante 0;
#X obj 82 35 inlet;
#X msg 84 153 color \$1 20 12;
#X obj 83 83 select 0;
#X msg 83 117 2;
#X msg 118 118 16;
#X obj 84 192 s color_tasto94;
#X connect 0 0 2 0;
#X connect 1 0 5 0;
#X connect 2 0 3 0;
#X connect 2 1 4 0;
#X connect 3 0 1 0;
#X connect 4 0 1 0;
#X restore 517 319 pd colore_pulsante;
#N canvas 170 363 450 300 colore_pulsante 0;
#X obj 82 35 inlet;
#X msg 83 152 color \$1 20 12;
#X msg 118 118 6;
#X msg 83 118 0;
#X obj 83 83 select 0;
#X obj 84 192 s color_tasto88;
#X connect 0 0 4 0;
#X connect 1 0 5 0;
#X connect 2 0 1 0;
#X connect 3 0 1 0;
#X connect 4 0 3 0;
#X connect 4 1 2 0;
#X restore 470 437 pd colore_pulsante;
#N canvas 170 363 450 300 colore_pulsante 0;
#X obj 82 35 inlet;
#X msg 83 152 color \$1 20 12;
#X msg 118 118 6;
#X msg 83 118 0;
#X obj 83 83 select 0;
#X obj 82 192 s color_tasto86;
#X connect 0 0 4 0;
#X connect 1 0 5 0;
#X connect 2 0 1 0;
#X connect 3 0 1 0;
#X connect 4 0 3 0;
#X connect 4 1 2 0;
#X restore 458 477 pd colore_pulsante;
#N canvas 170 363 450 300 colore_pulsante 0;
#X obj 82 35 inlet;
#X msg 84 153 color \$1 20 12;
#X obj 83 83 select 0;
#X msg 83 117 2;
#X msg 118 118 16;
#X obj 85 193 s color_tasto87;
#X connect 0 0 2 0;
#X connect 1 0 5 0;
#X connect 2 0 3 0;
#X connect 2 1 4 0;
#X connect 3 0 1 0;
#X connect 4 0 1 0;
#X restore 464 457 pd colore_pulsante;
#N canvas 170 363 450 300 colore_pulsante 0;
#X obj 82 35 inlet;
#X msg 83 152 color \$1 20 12;
#X msg 118 118 6;
#X msg 83 118 0;
#X obj 83 83 select 0;
#X obj 83 191 s color_tasto84;
#X connect 0 0 4 0;
#X connect 1 0 5 0;
#X connect 2 0 1 0;
#X connect 3 0 1 0;
#X connect 4 0 3 0;
#X connect 4 1 2 0;
#X restore 446 517 pd colore_pulsante;
#N canvas 170 363 450 300 colore_pulsante 0;
#X obj 82 35 inlet;
#X msg 84 153 color \$1 20 12;
#X obj 83 83 select 0;
#X msg 83 117 2;
#X msg 118 118 16;
#X obj 85 193 s color_tasto85;
#X connect 0 0 2 0;
#X connect 1 0 5 0;
#X connect 2 0 3 0;
#X connect 2 1 4 0;
#X connect 3 0 1 0;
#X connect 4 0 1 0;
#X restore 451 497 pd colore_pulsante;
#N canvas 0 82 1265 942 martelletti_ottava_n_1 0;
#X obj 260 -288 notein;
#X obj 278 -156 tgl 15 0 empty empty empty 17 7 0 10 -262144 -1 -1
0 1;
#X obj 278 -136 moses 1;
#X msg 317 -109 1;
#X msg 278 -110 0;
#X obj 421 -157 tgl 15 0 empty empty empty 17 7 0 10 -262144 -1 -1
0 1;
#X obj 421 -136 moses 1;
#X msg 460 -108 1;
#X msg 421 -109 0;
#X obj 350 -156 tgl 15 0 empty empty empty 17 7 0 10 -262144 -1 -1
0 1;
#X obj 350 -136 moses 1;
#X msg 389 -109 1;
#X msg 350 -110 0;
#X obj 141 -156 tgl 15 0 empty empty empty 17 7 0 10 -262144 -1 -1
0 1;
#X obj 141 -135 moses 1;
#X msg 180 -109 1;
#X msg 141 -109 0;
#X obj 210 -156 tgl 15 0 empty empty empty 17 7 0 10 -262144 -1 -1
0 1;
#X obj 210 -136 moses 1;
#X msg 249 -109 1;
#X msg 210 -110 0;
#X obj -72 -156 tgl 15 0 empty empty empty 17 7 0 10 -262144 -1 -1
0 1;
#X obj -72 -136 moses 1;
#X msg -33 -109 1;
#X msg -72 -110 0;
#X obj 71 -157 tgl 15 0 empty empty empty 17 7 0 10 -262144 -1 -1 0
1;
#X obj 71 -136 moses 1;
#X msg 110 -108 1;
#X msg 71 -109 0;
#X obj 0 -156 tgl 15 0 empty empty empty 17 7 0 10 -262144 -1 -1 0
1;
#X obj 0 -136 moses 1;
#X msg 39 -109 1;
#X msg 0 -110 0;
#X obj -209 -156 tgl 15 0 empty empty empty 17 7 0 10 -262144 -1 -1
0 1;
#X obj -209 -135 moses 1;
#X msg -170 -109 1;
#X msg -209 -109 0;
#X obj -140 -156 tgl 15 0 empty empty empty 17 7 0 10 -262144 -1 -1
0 1;
#X obj -140 -136 moses 1;
#X msg -101 -109 1;
#X msg -140 -110 0;
#X obj 491 -156 tgl 15 0 empty empty empty 17 7 0 10 -262144 -1 -1
0 1;
#X obj 491 -135 moses 1;
#X msg 530 -109 1;
#X msg 491 -109 0;
#X obj 560 -156 tgl 15 0 empty empty empty 17 7 0 10 -262144 -1 -1
0 1;
#X obj 560 -136 moses 1;
#X msg 599 -109 1;
#X msg 560 -110 0;
#X obj -209 -177 sel 36;
#X obj -140 -177 sel 37;
#X obj -72 -177 sel 38;
#X obj 0 -177 sel 39;
#X obj 71 -178 sel 40;
#X obj 141 -177 sel 41;
#X obj 210 -177 sel 42;
#X obj 278 -177 sel 43;
#X obj 350 -177 sel 44;
#X obj 421 -178 sel 45;
#X obj 491 -177 sel 46;
#X obj 560 -177 sel 47;
#X obj -301 7 outlet;
#X obj -259 7 outlet;
#X obj -217 7 outlet;
#X obj -175 7 outlet;
#X obj -133 7 outlet;
#X obj -91 7 outlet;
#X obj -49 7 outlet;
#X obj -7 7 outlet;
#X obj 35 7 outlet;
#X obj 77 7 outlet;
#X obj 119 7 outlet;
#X obj 161 7 outlet;
#X obj 203 7 outlet;
#X obj 245 7 outlet;
#X obj 287 7 outlet;
#X obj 329 7 outlet;
#X obj 371 7 outlet;
#X obj 413 7 outlet;
#X obj 455 7 outlet;
#X obj 497 7 outlet;
#X obj 539 7 outlet;
#X obj 581 7 outlet;
#X obj 623 7 outlet;
#X obj 665 7 outlet;
#X connect 0 0 49 0;
#X connect 0 0 50 0;
#X connect 0 0 51 0;
#X connect 0 0 52 0;
#X connect 0 0 53 0;
#X connect 0 0 54 0;
#X connect 0 0 55 0;
#X connect 0 0 56 0;
#X connect 0 0 57 0;
#X connect 0 0 58 0;
#X connect 0 0 59 0;
#X connect 0 0 60 0;
#X connect 1 0 2 0;
#X connect 2 0 4 0;
#X connect 2 1 3 0;
#X connect 3 0 76 0;
#X connect 4 0 75 0;
#X connect 5 0 6 0;
#X connect 6 0 8 0;
#X connect 6 1 7 0;
#X connect 7 0 80 0;
#X connect 8 0 79 0;
#X connect 9 0 10 0;
#X connect 10 0 12 0;
#X connect 10 1 11 0;
#X connect 11 0 78 0;
#X connect 12 0 77 0;
#X connect 13 0 14 0;
#X connect 14 0 16 0;
#X connect 14 1 15 0;
#X connect 15 0 72 0;
#X connect 16 0 71 0;
#X connect 17 0 18 0;
#X connect 18 0 20 0;
#X connect 18 1 19 0;
#X connect 19 0 74 0;
#X connect 20 0 73 0;
#X connect 21 0 22 0;
#X connect 22 0 24 0;
#X connect 22 1 23 0;
#X connect 23 0 66 0;
#X connect 24 0 65 0;
#X connect 25 0 26 0;
#X connect 26 0 28 0;
#X connect 26 1 27 0;
#X connect 27 0 70 0;
#X connect 28 0 69 0;
#X connect 29 0 30 0;
#X connect 30 0 32 0;
#X connect 30 1 31 0;
#X connect 31 0 68 0;
#X connect 32 0 67 0;
#X connect 33 0 34 0;
#X connect 34 0 36 0;
#X connect 34 1 35 0;
#X connect 35 0 62 0;
#X connect 36 0 61 0;
#X connect 37 0 38 0;
#X connect 38 0 40 0;
#X connect 38 1 39 0;
#X connect 39 0 64 0;
#X connect 40 0 63 0;
#X connect 41 0 42 0;
#X connect 42 0 44 0;
#X connect 42 1 43 0;
#X connect 43 0 82 0;
#X connect 44 0 81 0;
#X connect 45 0 46 0;
#X connect 46 0 48 0;
#X connect 46 1 47 0;
#X connect 47 0 84 0;
#X connect 48 0 83 0;
#X connect 49 0 33 0;
#X connect 50 0 37 0;
#X connect 51 0 21 0;
#X connect 52 0 29 0;
#X connect 53 0 25 0;
#X connect 54 0 13 0;
#X connect 55 0 17 0;
#X connect 56 0 1 0;
#X connect 57 0 9 0;
#X connect 58 0 5 0;
#X connect 59 0 41 0;
#X connect 60 0 45 0;
#X restore -144 -56 pd martelletti_ottava_n_1;
#N canvas 0 82 1265 942 martelletti_ottava_n_2 0;
#X obj 260 -288 notein;
#X obj 278 -156 tgl 15 0 empty empty empty 17 7 0 10 -262144 -1 -1
0 1;
#X obj 278 -136 moses 1;
#X msg 317 -109 1;
#X msg 278 -110 0;
#X obj 421 -157 tgl 15 0 empty empty empty 17 7 0 10 -262144 -1 -1
0 1;
#X obj 421 -136 moses 1;
#X msg 460 -108 1;
#X msg 421 -109 0;
#X obj 350 -156 tgl 15 0 empty empty empty 17 7 0 10 -262144 -1 -1
0 1;
#X obj 350 -136 moses 1;
#X msg 389 -109 1;
#X msg 350 -110 0;
#X obj 141 -156 tgl 15 0 empty empty empty 17 7 0 10 -262144 -1 -1
0 1;
#X obj 141 -135 moses 1;
#X msg 180 -109 1;
#X msg 141 -109 0;
#X obj 210 -156 tgl 15 0 empty empty empty 17 7 0 10 -262144 -1 -1
0 1;
#X obj 210 -136 moses 1;
#X msg 249 -109 1;
#X msg 210 -110 0;
#X obj -72 -156 tgl 15 0 empty empty empty 17 7 0 10 -262144 -1 -1
0 1;
#X obj -72 -136 moses 1;
#X msg -33 -109 1;
#X msg -72 -110 0;
#X obj 71 -157 tgl 15 0 empty empty empty 17 7 0 10 -262144 -1 -1 0
1;
#X obj 71 -136 moses 1;
#X msg 110 -108 1;
#X msg 71 -109 0;
#X obj 0 -156 tgl 15 0 empty empty empty 17 7 0 10 -262144 -1 -1 0
1;
#X obj 0 -136 moses 1;
#X msg 39 -109 1;
#X msg 0 -110 0;
#X obj -209 -156 tgl 15 0 empty empty empty 17 7 0 10 -262144 -1 -1
0 1;
#X obj -209 -135 moses 1;
#X msg -170 -109 1;
#X msg -209 -109 0;
#X obj -140 -156 tgl 15 0 empty empty empty 17 7 0 10 -262144 -1 -1
0 1;
#X obj -140 -136 moses 1;
#X msg -101 -109 1;
#X msg -140 -110 0;
#X obj 491 -156 tgl 15 0 empty empty empty 17 7 0 10 -262144 -1 -1
0 1;
#X obj 491 -135 moses 1;
#X msg 530 -109 1;
#X msg 491 -109 0;
#X obj 560 -156 tgl 15 0 empty empty empty 17 7 0 10 -262144 -1 -1
0 1;
#X obj 560 -136 moses 1;
#X msg 599 -109 1;
#X msg 560 -110 0;
#X obj -301 7 outlet;
#X obj -259 7 outlet;
#X obj -217 7 outlet;
#X obj -175 7 outlet;
#X obj -133 7 outlet;
#X obj -91 7 outlet;
#X obj -49 7 outlet;
#X obj -7 7 outlet;
#X obj 35 7 outlet;
#X obj 77 7 outlet;
#X obj 119 7 outlet;
#X obj 161 7 outlet;
#X obj 203 7 outlet;
#X obj 245 7 outlet;
#X obj 287 7 outlet;
#X obj 329 7 outlet;
#X obj 371 7 outlet;
#X obj 413 7 outlet;
#X obj 455 7 outlet;
#X obj 497 7 outlet;
#X obj 539 7 outlet;
#X obj 581 7 outlet;
#X obj 623 7 outlet;
#X obj 665 7 outlet;
#X obj -209 -177 sel 48;
#X obj -140 -177 sel 49;
#X obj -73 -177 sel 50;
#X obj 0 -177 sel 51;
#X obj 71 -178 sel 52;
#X obj 141 -177 sel 53;
#X obj 210 -177 sel 54;
#X obj 278 -177 sel 55;
#X obj 350 -177 sel 56;
#X obj 421 -178 sel 57;
#X obj 491 -177 sel 58;
#X obj 560 -177 sel 59;
#X connect 0 0 73 0;
#X connect 0 0 74 0;
#X connect 0 0 75 0;
#X connect 0 0 76 0;
#X connect 0 0 77 0;
#X connect 0 0 78 0;
#X connect 0 0 79 0;
#X connect 0 0 80 0;
#X connect 0 0 81 0;
#X connect 0 0 82 0;
#X connect 0 0 83 0;
#X connect 0 0 84 0;
#X connect 1 0 2 0;
#X connect 2 0 4 0;
#X connect 2 1 3 0;
#X connect 3 0 64 0;
#X connect 4 0 63 0;
#X connect 5 0 6 0;
#X connect 6 0 8 0;
#X connect 6 1 7 0;
#X connect 7 0 68 0;
#X connect 8 0 67 0;
#X connect 9 0 10 0;
#X connect 10 0 12 0;
#X connect 10 1 11 0;
#X connect 11 0 66 0;
#X connect 12 0 65 0;
#X connect 13 0 14 0;
#X connect 14 0 16 0;
#X connect 14 1 15 0;
#X connect 15 0 60 0;
#X connect 16 0 59 0;
#X connect 17 0 18 0;
#X connect 18 0 20 0;
#X connect 18 1 19 0;
#X connect 19 0 62 0;
#X connect 20 0 61 0;
#X connect 21 0 22 0;
#X connect 22 0 24 0;
#X connect 22 1 23 0;
#X connect 23 0 54 0;
#X connect 24 0 53 0;
#X connect 25 0 26 0;
#X connect 26 0 28 0;
#X connect 26 1 27 0;
#X connect 27 0 58 0;
#X connect 28 0 57 0;
#X connect 29 0 30 0;
#X connect 30 0 32 0;
#X connect 30 1 31 0;
#X connect 31 0 56 0;
#X connect 32 0 55 0;
#X connect 33 0 34 0;
#X connect 34 0 36 0;
#X connect 34 1 35 0;
#X connect 35 0 50 0;
#X connect 36 0 49 0;
#X connect 37 0 38 0;
#X connect 38 0 40 0;
#X connect 38 1 39 0;
#X connect 39 0 52 0;
#X connect 40 0 51 0;
#X connect 41 0 42 0;
#X connect 42 0 44 0;
#X connect 42 1 43 0;
#X connect 43 0 70 0;
#X connect 44 0 69 0;
#X connect 45 0 46 0;
#X connect 46 0 48 0;
#X connect 46 1 47 0;
#X connect 47 0 72 0;
#X connect 48 0 71 0;
#X connect 73 0 33 0;
#X connect 74 0 37 0;
#X connect 75 0 21 0;
#X connect 76 0 29 0;
#X connect 77 0 25 0;
#X connect 78 0 13 0;
#X connect 79 0 17 0;
#X connect 80 0 1 0;
#X connect 81 0 9 0;
#X connect 82 0 5 0;
#X connect 83 0 41 0;
#X connect 84 0 45 0;
#X restore 16 -56 pd martelletti_ottava_n_2;
#N canvas 0 82 1265 942 martelletti_ottava_n_3 0;
#X obj 260 -288 notein;
#X obj 278 -156 tgl 15 0 empty empty empty 17 7 0 10 -262144 -1 -1
0 1;
#X obj 278 -136 moses 1;
#X msg 317 -109 1;
#X msg 278 -110 0;
#X obj 421 -157 tgl 15 0 empty empty empty 17 7 0 10 -262144 -1 -1
0 1;
#X obj 421 -136 moses 1;
#X msg 460 -108 1;
#X msg 421 -109 0;
#X obj 350 -156 tgl 15 0 empty empty empty 17 7 0 10 -262144 -1 -1
0 1;
#X obj 350 -136 moses 1;
#X msg 389 -109 1;
#X msg 350 -110 0;
#X obj 141 -156 tgl 15 0 empty empty empty 17 7 0 10 -262144 -1 -1
0 1;
#X obj 141 -135 moses 1;
#X msg 180 -109 1;
#X msg 141 -109 0;
#X obj 210 -156 tgl 15 0 empty empty empty 17 7 0 10 -262144 -1 -1
0 1;
#X obj 210 -136 moses 1;
#X msg 249 -109 1;
#X msg 210 -110 0;
#X obj -72 -156 tgl 15 0 empty empty empty 17 7 0 10 -262144 -1 -1
0 1;
#X obj -72 -136 moses 1;
#X msg -33 -109 1;
#X msg -72 -110 0;
#X obj 71 -157 tgl 15 0 empty empty empty 17 7 0 10 -262144 -1 -1 0
1;
#X obj 71 -136 moses 1;
#X msg 110 -108 1;
#X msg 71 -109 0;
#X obj 0 -156 tgl 15 0 empty empty empty 17 7 0 10 -262144 -1 -1 0
1;
#X obj 0 -136 moses 1;
#X msg 39 -109 1;
#X msg 0 -110 0;
#X obj -209 -156 tgl 15 0 empty empty empty 17 7 0 10 -262144 -1 -1
0 1;
#X obj -209 -135 moses 1;
#X msg -170 -109 1;
#X msg -209 -109 0;
#X obj -140 -156 tgl 15 0 empty empty empty 17 7 0 10 -262144 -1 -1
0 1;
#X obj -140 -136 moses 1;
#X msg -101 -109 1;
#X msg -140 -110 0;
#X obj 491 -156 tgl 15 0 empty empty empty 17 7 0 10 -262144 -1 -1
0 1;
#X obj 491 -135 moses 1;
#X msg 530 -109 1;
#X msg 491 -109 0;
#X obj 560 -156 tgl 15 0 empty empty empty 17 7 0 10 -262144 -1 -1
0 1;
#X obj 560 -136 moses 1;
#X msg 599 -109 1;
#X msg 560 -110 0;
#X obj -301 7 outlet;
#X obj -259 7 outlet;
#X obj -217 7 outlet;
#X obj -175 7 outlet;
#X obj -133 7 outlet;
#X obj -91 7 outlet;
#X obj -49 7 outlet;
#X obj -7 7 outlet;
#X obj 35 7 outlet;
#X obj 77 7 outlet;
#X obj 119 7 outlet;
#X obj 161 7 outlet;
#X obj 203 7 outlet;
#X obj 245 7 outlet;
#X obj 287 7 outlet;
#X obj 329 7 outlet;
#X obj 371 7 outlet;
#X obj 413 7 outlet;
#X obj 455 7 outlet;
#X obj 497 7 outlet;
#X obj 539 7 outlet;
#X obj 581 7 outlet;
#X obj 623 7 outlet;
#X obj 665 7 outlet;
#X obj -209 -177 sel 60;
#X obj -140 -177 sel 61;
#X obj -73 -177 sel 62;
#X obj 0 -177 sel 63;
#X obj 71 -178 sel 64;
#X obj 141 -177 sel 65;
#X obj 210 -177 sel 66;
#X obj 278 -177 sel 67;
#X obj 350 -177 sel 68;
#X obj 421 -178 sel 69;
#X obj 491 -177 sel 70;
#X obj 560 -177 sel 71;
#X connect 0 0 73 0;
#X connect 0 0 74 0;
#X connect 0 0 75 0;
#X connect 0 0 76 0;
#X connect 0 0 77 0;
#X connect 0 0 78 0;
#X connect 0 0 79 0;
#X connect 0 0 80 0;
#X connect 0 0 81 0;
#X connect 0 0 82 0;
#X connect 0 0 83 0;
#X connect 0 0 84 0;
#X connect 1 0 2 0;
#X connect 2 0 4 0;
#X connect 2 1 3 0;
#X connect 3 0 64 0;
#X connect 4 0 63 0;
#X connect 5 0 6 0;
#X connect 6 0 8 0;
#X connect 6 1 7 0;
#X connect 7 0 68 0;
#X connect 8 0 67 0;
#X connect 9 0 10 0;
#X connect 10 0 12 0;
#X connect 10 1 11 0;
#X connect 11 0 66 0;
#X connect 12 0 65 0;
#X connect 13 0 14 0;
#X connect 14 0 16 0;
#X connect 14 1 15 0;
#X connect 15 0 60 0;
#X connect 16 0 59 0;
#X connect 17 0 18 0;
#X connect 18 0 20 0;
#X connect 18 1 19 0;
#X connect 19 0 62 0;
#X connect 20 0 61 0;
#X connect 21 0 22 0;
#X connect 22 0 24 0;
#X connect 22 1 23 0;
#X connect 23 0 54 0;
#X connect 24 0 53 0;
#X connect 25 0 26 0;
#X connect 26 0 28 0;
#X connect 26 1 27 0;
#X connect 27 0 58 0;
#X connect 28 0 57 0;
#X connect 29 0 30 0;
#X connect 30 0 32 0;
#X connect 30 1 31 0;
#X connect 31 0 56 0;
#X connect 32 0 55 0;
#X connect 33 0 34 0;
#X connect 34 0 36 0;
#X connect 34 1 35 0;
#X connect 35 0 50 0;
#X connect 36 0 49 0;
#X connect 37 0 38 0;
#X connect 38 0 40 0;
#X connect 38 1 39 0;
#X connect 39 0 52 0;
#X connect 40 0 51 0;
#X connect 41 0 42 0;
#X connect 42 0 44 0;
#X connect 42 1 43 0;
#X connect 43 0 70 0;
#X connect 44 0 69 0;
#X connect 45 0 46 0;
#X connect 46 0 48 0;
#X connect 46 1 47 0;
#X connect 47 0 72 0;
#X connect 48 0 71 0;
#X connect 73 0 33 0;
#X connect 74 0 37 0;
#X connect 75 0 21 0;
#X connect 76 0 29 0;
#X connect 77 0 25 0;
#X connect 78 0 13 0;
#X connect 79 0 17 0;
#X connect 80 0 1 0;
#X connect 81 0 9 0;
#X connect 82 0 5 0;
#X connect 83 0 41 0;
#X connect 84 0 45 0;
#X restore 176 -56 pd martelletti_ottava_n_3;
#N canvas 181 128 1060 478 martelletti_ottava_n_4 0;
#X obj 260 -288 notein;
#X obj 278 -156 tgl 15 0 empty empty empty 17 7 0 10 -262144 -1 -1
0 1;
#X obj 278 -136 moses 1;
#X msg 317 -109 1;
#X msg 278 -110 0;
#X obj 421 -157 tgl 15 0 empty empty empty 17 7 0 10 -262144 -1 -1
0 1;
#X obj 421 -136 moses 1;
#X msg 460 -108 1;
#X msg 421 -109 0;
#X obj 350 -156 tgl 15 0 empty empty empty 17 7 0 10 -262144 -1 -1
0 1;
#X obj 350 -136 moses 1;
#X msg 389 -109 1;
#X msg 350 -110 0;
#X obj 141 -156 tgl 15 0 empty empty empty 17 7 0 10 -262144 -1 -1
0 1;
#X obj 141 -135 moses 1;
#X msg 180 -109 1;
#X msg 141 -109 0;
#X obj 210 -156 tgl 15 0 empty empty empty 17 7 0 10 -262144 -1 -1
0 1;
#X obj 210 -136 moses 1;
#X msg 249 -109 1;
#X msg 210 -110 0;
#X obj -72 -156 tgl 15 0 empty empty empty 17 7 0 10 -262144 -1 -1
0 1;
#X obj -72 -136 moses 1;
#X msg -33 -109 1;
#X msg -72 -110 0;
#X obj 71 -157 tgl 15 0 empty empty empty 17 7 0 10 -262144 -1 -1 0
1;
#X obj 71 -136 moses 1;
#X msg 110 -108 1;
#X msg 71 -109 0;
#X obj 0 -156 tgl 15 0 empty empty empty 17 7 0 10 -262144 -1 -1 0
1;
#X obj 0 -136 moses 1;
#X msg 39 -109 1;
#X msg 0 -110 0;
#X obj -209 -156 tgl 15 0 empty empty empty 17 7 0 10 -262144 -1 -1
0 1;
#X obj -209 -135 moses 1;
#X msg -170 -109 1;
#X msg -209 -109 0;
#X obj -140 -156 tgl 15 0 empty empty empty 17 7 0 10 -262144 -1 -1
0 1;
#X obj -140 -136 moses 1;
#X msg -101 -109 1;
#X msg -140 -110 0;
#X obj 491 -156 tgl 15 0 empty empty empty 17 7 0 10 -262144 -1 -1
0 1;
#X obj 491 -135 moses 1;
#X msg 530 -109 1;
#X msg 491 -109 0;
#X obj 560 -156 tgl 15 0 empty empty empty 17 7 0 10 -262144 -1 -1
0 1;
#X obj 560 -136 moses 1;
#X msg 599 -109 1;
#X msg 560 -110 0;
#X obj -301 7 outlet;
#X obj -259 7 outlet;
#X obj -217 7 outlet;
#X obj -175 7 outlet;
#X obj -133 7 outlet;
#X obj -91 7 outlet;
#X obj -49 7 outlet;
#X obj -7 7 outlet;
#X obj 35 7 outlet;
#X obj 77 7 outlet;
#X obj 119 7 outlet;
#X obj 161 7 outlet;
#X obj 203 7 outlet;
#X obj 245 7 outlet;
#X obj 287 7 outlet;
#X obj 329 7 outlet;
#X obj 371 7 outlet;
#X obj 413 7 outlet;
#X obj 455 7 outlet;
#X obj 497 7 outlet;
#X obj 539 7 outlet;
#X obj 581 7 outlet;
#X obj 623 7 outlet;
#X obj 665 7 outlet;
#X obj -209 -177 sel 72;
#X obj -140 -177 sel 73;
#X obj -73 -177 sel 74;
#X obj 0 -177 sel 75;
#X obj 71 -178 sel 76;
#X obj 141 -177 sel 77;
#X obj 210 -177 sel 78;
#X obj 278 -177 sel 79;
#X obj 350 -177 sel 80;
#X obj 421 -178 sel 81;
#X obj 491 -177 sel 82;
#X obj 560 -177 sel 83;
#X connect 0 0 73 0;
#X connect 0 0 74 0;
#X connect 0 0 75 0;
#X connect 0 0 76 0;
#X connect 0 0 77 0;
#X connect 0 0 78 0;
#X connect 0 0 79 0;
#X connect 0 0 80 0;
#X connect 0 0 81 0;
#X connect 0 0 82 0;
#X connect 0 0 83 0;
#X connect 0 0 84 0;
#X connect 1 0 2 0;
#X connect 2 0 4 0;
#X connect 2 1 3 0;
#X connect 3 0 64 0;
#X connect 4 0 63 0;
#X connect 5 0 6 0;
#X connect 6 0 8 0;
#X connect 6 1 7 0;
#X connect 7 0 68 0;
#X connect 8 0 67 0;
#X connect 9 0 10 0;
#X connect 10 0 12 0;
#X connect 10 1 11 0;
#X connect 11 0 66 0;
#X connect 12 0 65 0;
#X connect 13 0 14 0;
#X connect 14 0 16 0;
#X connect 14 1 15 0;
#X connect 15 0 60 0;
#X connect 16 0 59 0;
#X connect 17 0 18 0;
#X connect 18 0 20 0;
#X connect 18 1 19 0;
#X connect 19 0 62 0;
#X connect 20 0 61 0;
#X connect 21 0 22 0;
#X connect 22 0 24 0;
#X connect 22 1 23 0;
#X connect 23 0 54 0;
#X connect 24 0 53 0;
#X connect 25 0 26 0;
#X connect 26 0 28 0;
#X connect 26 1 27 0;
#X connect 27 0 58 0;
#X connect 28 0 57 0;
#X connect 29 0 30 0;
#X connect 30 0 32 0;
#X connect 30 1 31 0;
#X connect 31 0 56 0;
#X connect 32 0 55 0;
#X connect 33 0 34 0;
#X connect 34 0 36 0;
#X connect 34 1 35 0;
#X connect 35 0 50 0;
#X connect 36 0 49 0;
#X connect 37 0 38 0;
#X connect 38 0 40 0;
#X connect 38 1 39 0;
#X connect 39 0 52 0;
#X connect 40 0 51 0;
#X connect 41 0 42 0;
#X connect 42 0 44 0;
#X connect 42 1 43 0;
#X connect 43 0 70 0;
#X connect 44 0 69 0;
#X connect 45 0 46 0;
#X connect 46 0 48 0;
#X connect 46 1 47 0;
#X connect 47 0 72 0;
#X connect 48 0 71 0;
#X connect 73 0 33 0;
#X connect 74 0 37 0;
#X connect 75 0 21 0;
#X connect 76 0 29 0;
#X connect 77 0 25 0;
#X connect 78 0 13 0;
#X connect 79 0 17 0;
#X connect 80 0 1 0;
#X connect 81 0 9 0;
#X connect 82 0 5 0;
#X connect 83 0 41 0;
#X connect 84 0 45 0;
#X restore 336 -56 pd martelletti_ottava_n_4;
#N canvas 0 82 1265 942 martelletti_ottava_n_5 0;
#X obj 260 -288 notein;
#X obj 278 -156 tgl 15 0 empty empty empty 17 7 0 10 -262144 -1 -1
0 1;
#X obj 278 -136 moses 1;
#X msg 317 -109 1;
#X msg 278 -110 0;
#X obj 421 -157 tgl 15 0 empty empty empty 17 7 0 10 -262144 -1 -1
0 1;
#X obj 421 -136 moses 1;
#X msg 460 -108 1;
#X msg 421 -109 0;
#X obj 350 -156 tgl 15 0 empty empty empty 17 7 0 10 -262144 -1 -1
0 1;
#X obj 350 -136 moses 1;
#X msg 389 -109 1;
#X msg 350 -110 0;
#X obj 141 -156 tgl 15 0 empty empty empty 17 7 0 10 -262144 -1 -1
0 1;
#X obj 141 -135 moses 1;
#X msg 180 -109 1;
#X msg 141 -109 0;
#X obj 210 -156 tgl 15 0 empty empty empty 17 7 0 10 -262144 -1 -1
0 1;
#X obj 210 -136 moses 1;
#X msg 249 -109 1;
#X msg 210 -110 0;
#X obj -72 -156 tgl 15 0 empty empty empty 17 7 0 10 -262144 -1 -1
0 1;
#X obj -72 -136 moses 1;
#X msg -33 -109 1;
#X msg -72 -110 0;
#X obj 71 -157 tgl 15 0 empty empty empty 17 7 0 10 -262144 -1 -1 0
1;
#X obj 71 -136 moses 1;
#X msg 110 -108 1;
#X msg 71 -109 0;
#X obj 0 -156 tgl 15 0 empty empty empty 17 7 0 10 -262144 -1 -1 0
1;
#X obj 0 -136 moses 1;
#X msg 39 -109 1;
#X msg 0 -110 0;
#X obj -209 -156 tgl 15 0 empty empty empty 17 7 0 10 -262144 -1 -1
0 1;
#X obj -209 -135 moses 1;
#X msg -170 -109 1;
#X msg -209 -109 0;
#X obj -140 -156 tgl 15 0 empty empty empty 17 7 0 10 -262144 -1 -1
0 1;
#X obj -140 -136 moses 1;
#X msg -101 -109 1;
#X msg -140 -110 0;
#X obj 491 -156 tgl 15 0 empty empty empty 17 7 0 10 -262144 -1 -1
0 1;
#X obj 491 -135 moses 1;
#X msg 530 -109 1;
#X msg 491 -109 0;
#X obj 560 -156 tgl 15 0 empty empty empty 17 7 0 10 -262144 -1 -1
0 1;
#X obj 560 -136 moses 1;
#X msg 599 -109 1;
#X msg 560 -110 0;
#X obj -301 7 outlet;
#X obj -259 7 outlet;
#X obj -217 7 outlet;
#X obj -175 7 outlet;
#X obj -133 7 outlet;
#X obj -91 7 outlet;
#X obj -49 7 outlet;
#X obj -7 7 outlet;
#X obj 35 7 outlet;
#X obj 77 7 outlet;
#X obj 119 7 outlet;
#X obj 161 7 outlet;
#X obj 203 7 outlet;
#X obj 245 7 outlet;
#X obj 287 7 outlet;
#X obj 329 7 outlet;
#X obj 371 7 outlet;
#X obj 413 7 outlet;
#X obj 455 7 outlet;
#X obj 497 7 outlet;
#X obj 539 7 outlet;
#X obj 581 7 outlet;
#X obj 623 7 outlet;
#X obj 665 7 outlet;
#X obj -209 -177 sel 84;
#X obj -140 -177 sel 85;
#X obj -73 -177 sel 86;
#X obj 0 -177 sel 87;
#X obj 71 -178 sel 88;
#X obj 141 -177 sel 89;
#X obj 210 -177 sel 90;
#X obj 278 -177 sel 91;
#X obj 350 -177 sel 92;
#X obj 421 -178 sel 93;
#X obj 491 -177 sel 94;
#X obj 560 -177 sel 95;
#X connect 0 0 73 0;
#X connect 0 0 74 0;
#X connect 0 0 75 0;
#X connect 0 0 76 0;
#X connect 0 0 77 0;
#X connect 0 0 78 0;
#X connect 0 0 79 0;
#X connect 0 0 80 0;
#X connect 0 0 81 0;
#X connect 0 0 82 0;
#X connect 0 0 83 0;
#X connect 0 0 84 0;
#X connect 1 0 2 0;
#X connect 2 0 4 0;
#X connect 2 1 3 0;
#X connect 3 0 64 0;
#X connect 4 0 63 0;
#X connect 5 0 6 0;
#X connect 6 0 8 0;
#X connect 6 1 7 0;
#X connect 7 0 68 0;
#X connect 8 0 67 0;
#X connect 9 0 10 0;
#X connect 10 0 12 0;
#X connect 10 1 11 0;
#X connect 11 0 66 0;
#X connect 12 0 65 0;
#X connect 13 0 14 0;
#X connect 14 0 16 0;
#X connect 14 1 15 0;
#X connect 15 0 60 0;
#X connect 16 0 59 0;
#X connect 17 0 18 0;
#X connect 18 0 20 0;
#X connect 18 1 19 0;
#X connect 19 0 62 0;
#X connect 20 0 61 0;
#X connect 21 0 22 0;
#X connect 22 0 24 0;
#X connect 22 1 23 0;
#X connect 23 0 54 0;
#X connect 24 0 53 0;
#X connect 25 0 26 0;
#X connect 26 0 28 0;
#X connect 26 1 27 0;
#X connect 27 0 58 0;
#X connect 28 0 57 0;
#X connect 29 0 30 0;
#X connect 30 0 32 0;
#X connect 30 1 31 0;
#X connect 31 0 56 0;
#X connect 32 0 55 0;
#X connect 33 0 34 0;
#X connect 34 0 36 0;
#X connect 34 1 35 0;
#X connect 35 0 50 0;
#X connect 36 0 49 0;
#X connect 37 0 38 0;
#X connect 38 0 40 0;
#X connect 38 1 39 0;
#X connect 39 0 52 0;
#X connect 40 0 51 0;
#X connect 41 0 42 0;
#X connect 42 0 44 0;
#X connect 42 1 43 0;
#X connect 43 0 70 0;
#X connect 44 0 69 0;
#X connect 45 0 46 0;
#X connect 46 0 48 0;
#X connect 46 1 47 0;
#X connect 47 0 72 0;
#X connect 48 0 71 0;
#X connect 73 0 33 0;
#X connect 74 0 37 0;
#X connect 75 0 21 0;
#X connect 76 0 29 0;
#X connect 77 0 25 0;
#X connect 78 0 13 0;
#X connect 79 0 17 0;
#X connect 80 0 1 0;
#X connect 81 0 9 0;
#X connect 82 0 5 0;
#X connect 83 0 41 0;
#X connect 84 0 45 0;
#X restore 496 -56 pd martelletti_ottava_n_5;
#X connect 0 0 2 0;
#X connect 1 0 3 0;
#X connect 4 0 5 0;
#X connect 6 0 7 0;
#X connect 8 0 9 0;
#X connect 10 0 20 0;
#X connect 11 0 19 0;
#X connect 12 0 21 0;
#X connect 13 0 22 0;
#X connect 14 0 23 0;
#X connect 15 0 17 0;
#X connect 16 0 18 0;
#X connect 24 0 26 0;
#X connect 25 0 27 0;
#X connect 28 0 29 0;
#X connect 30 0 31 0;
#X connect 32 0 33 0;
#X connect 34 0 44 0;
#X connect 35 0 43 0;
#X connect 36 0 45 0;
#X connect 37 0 46 0;
#X connect 38 0 47 0;
#X connect 39 0 41 0;
#X connect 40 0 42 0;
#X connect 48 0 50 0;
#X connect 49 0 51 0;
#X connect 52 0 53 0;
#X connect 54 0 55 0;
#X connect 56 0 57 0;
#X connect 58 0 68 0;
#X connect 59 0 67 0;
#X connect 60 0 69 0;
#X connect 61 0 70 0;
#X connect 62 0 71 0;
#X connect 63 0 65 0;
#X connect 64 0 66 0;
#X connect 72 0 74 0;
#X connect 73 0 75 0;
#X connect 76 0 77 0;
#X connect 78 0 79 0;
#X connect 80 0 81 0;
#X connect 82 0 92 0;
#X connect 83 0 91 0;
#X connect 84 0 93 0;
#X connect 85 0 94 0;
#X connect 86 0 95 0;
#X connect 87 0 89 0;
#X connect 88 0 90 0;
#X connect 96 0 98 0;
#X connect 97 0 99 0;
#X connect 100 0 101 0;
#X connect 102 0 103 0;
#X connect 104 0 105 0;
#X connect 106 0 116 0;
#X connect 107 0 115 0;
#X connect 108 0 117 0;
#X connect 109 0 118 0;
#X connect 110 0 119 0;
#X connect 111 0 113 0;
#X connect 112 0 114 0;
#X connect 120 0 13 0;
#X connect 120 1 13 0;
#X connect 120 2 14 0;
#X connect 120 3 14 0;
#X connect 120 4 10 0;
#X connect 120 5 10 0;
#X connect 120 6 12 0;
#X connect 120 7 12 0;
#X connect 120 8 11 0;
#X connect 120 9 11 0;
#X connect 120 10 6 0;
#X connect 120 11 6 0;
#X connect 120 12 8 0;
#X connect 120 13 8 0;
#X connect 120 14 0 0;
#X connect 120 15 0 0;
#X connect 120 16 4 0;
#X connect 120 17 4 0;
#X connect 120 18 1 0;
#X connect 120 19 1 0;
#X connect 120 20 16 0;
#X connect 120 21 16 0;
#X connect 120 22 15 0;
#X connect 120 23 15 0;
#X connect 121 0 37 0;
#X connect 121 1 37 0;
#X connect 121 2 38 0;
#X connect 121 3 38 0;
#X connect 121 4 34 0;
#X connect 121 5 34 0;
#X connect 121 6 36 0;
#X connect 121 7 36 0;
#X connect 121 8 35 0;
#X connect 121 9 35 0;
#X connect 121 10 30 0;
#X connect 121 11 30 0;
#X connect 121 12 32 0;
#X connect 121 13 32 0;
#X connect 121 14 24 0;
#X connect 121 15 24 0;
#X connect 121 16 28 0;
#X connect 121 17 28 0;
#X connect 121 18 25 0;
#X connect 121 19 25 0;
#X connect 121 20 40 0;
#X connect 121 21 40 0;
#X connect 121 22 39 0;
#X connect 121 23 39 0;
#X connect 122 0 61 0;
#X connect 122 1 61 0;
#X connect 122 2 62 0;
#X connect 122 3 62 0;
#X connect 122 4 58 0;
#X connect 122 5 58 0;
#X connect 122 6 60 0;
#X connect 122 7 60 0;
#X connect 122 8 59 0;
#X connect 122 9 59 0;
#X connect 122 10 54 0;
#X connect 122 11 54 0;
#X connect 122 12 56 0;
#X connect 122 13 56 0;
#X connect 122 14 48 0;
#X connect 122 15 48 0;
#X connect 122 16 52 0;
#X connect 122 17 52 0;
#X connect 122 18 49 0;
#X connect 122 19 49 0;
#X connect 122 20 64 0;
#X connect 122 21 64 0;
#X connect 122 22 63 0;
#X connect 122 23 63 0;
#X connect 123 0 85 0;
#X connect 123 1 85 0;
#X connect 123 2 86 0;
#X connect 123 3 86 0;
#X connect 123 4 82 0;
#X connect 123 5 82 0;
#X connect 123 6 84 0;
#X connect 123 7 84 0;
#X connect 123 8 83 0;
#X connect 123 9 83 0;
#X connect 123 10 78 0;
#X connect 123 11 78 0;
#X connect 123 12 80 0;
#X connect 123 13 80 0;
#X connect 123 14 72 0;
#X connect 123 15 72 0;
#X connect 123 16 76 0;
#X connect 123 17 76 0;
#X connect 123 18 73 0;
#X connect 123 19 73 0;
#X connect 123 20 88 0;
#X connect 123 21 88 0;
#X connect 123 22 87 0;
#X connect 123 23 87 0;
#X connect 124 0 109 0;
#X connect 124 1 109 0;
#X connect 124 2 110 0;
#X connect 124 3 110 0;
#X connect 124 4 106 0;
#X connect 124 5 106 0;
#X connect 124 6 108 0;
#X connect 124 7 108 0;
#X connect 124 8 107 0;
#X connect 124 9 107 0;
#X connect 124 10 102 0;
#X connect 124 11 102 0;
#X connect 124 12 104 0;
#X connect 124 13 104 0;
#X connect 124 14 96 0;
#X connect 124 15 96 0;
#X connect 124 16 100 0;
#X connect 124 17 100 0;
#X connect 124 18 97 0;
#X connect 124 19 97 0;
#X connect 124 20 112 0;
#X connect 124 21 112 0;
#X connect 124 22 111 0;
#X connect 124 23 111 0;
#X coords 0 -1 1 1 736 133 1 -145 153;
